<?xml version="1.0" standalone="no"?>
<!DOCTYPE svg PUBLIC "-//W3C//DTD SVG 20010904//EN"
 "http://www.w3.org/TR/2001/REC-SVG-20010904/DTD/svg10.dtd">
<svg version="1.0" xmlns="http://www.w3.org/2000/svg"
 width="512.000000pt" height="512.000000pt" viewBox="0 0 512.000000 512.000000"
 preserveAspectRatio="xMidYMid meet">

<g transform="translate(0.000000,512.000000) scale(0.100000,-0.100000)"
fill="#000000" stroke="none">
<path d="M2355 5108 c-49 -17 -92 -55 -113 -100 -13 -26 -31 -110 -46 -212
-14 -92 -26 -169 -28 -170 -2 -1 -48 -15 -103 -30 -124 -34 -285 -101 -398
-166 l-87 -50 -137 101 c-155 114 -183 129 -248 129 -75 0 -112 -23 -242 -153
-132 -133 -153 -167 -153 -249 0 -64 13 -89 138 -257 l92 -124 -20 -31 c-70
-106 -172 -345 -206 -481 -9 -39 -18 -71 -20 -73 -1 -2 -84 -16 -184 -32 -208
-32 -244 -49 -287 -129 -22 -42 -23 -55 -23 -228 0 -196 7 -232 53 -281 40
-43 90 -59 262 -86 94 -14 173 -26 176 -26 3 0 12 -26 19 -57 30 -137 127
-369 204 -491 l26 -42 -101 -137 c-56 -75 -108 -152 -115 -170 -18 -43 -18
-115 1 -160 19 -45 236 -268 287 -294 40 -20 129 -26 170 -10 13 5 87 56 166
114 l144 105 56 -35 c31 -19 83 -46 114 -61 32 -15 58 -30 58 -34 0 -4 -14
-29 -30 -55 -42 -65 -60 -133 -60 -219 0 -71 0 -72 -32 -85 -46 -19 -96 -66
-121 -113 -22 -44 -30 -147 -14 -198 8 -24 6 -27 -21 -33 -42 -9 -116 -76
-141 -128 -18 -37 -21 -62 -21 -179 0 -136 0 -137 26 -157 27 -21 29 -21 1164
-21 1135 0 1137 0 1164 21 26 20 26 21 26 157 0 117 -3 142 -21 179 -25 52
-99 119 -141 128 -27 6 -29 9 -21 33 16 51 8 154 -14 198 -25 47 -75 94 -121
113 -32 13 -32 14 -32 85 0 86 -18 154 -60 219 -16 26 -30 49 -30 52 0 2 39
25 88 51 48 26 99 55 113 65 l26 18 124 -91 c173 -128 192 -138 265 -138 79 0
117 24 256 167 115 117 138 155 138 228 0 65 -15 95 -129 248 l-101 137 24 38
c78 124 176 359 206 495 7 31 16 57 20 57 4 0 83 12 176 26 171 26 221 43 261
86 46 49 53 85 53 281 0 173 -1 186 -23 228 -43 80 -79 97 -287 129 -100 16
-183 30 -184 32 -2 2 -11 34 -20 73 -34 136 -136 375 -206 481 l-20 31 92 124
c125 168 138 193 138 257 0 82 -21 116 -153 249 -131 131 -167 153 -245 153
-62 0 -92 -16 -251 -134 l-130 -96 -87 50 c-114 65 -274 132 -399 166 -55 15
-101 29 -103 30 -2 1 -14 78 -28 170 -15 102 -33 186 -46 212 -22 47 -64 83
-117 101 -43 14 -365 13 -406 -1z m379 -157 c12 -13 26 -76 47 -216 16 -108
34 -205 39 -216 6 -11 33 -25 68 -34 245 -66 431 -142 584 -241 41 -26 64 -35
81 -30 13 3 97 60 186 126 90 66 173 120 184 120 32 0 247 -217 247 -249 0
-14 -42 -80 -111 -172 -124 -168 -141 -196 -133 -222 3 -11 28 -56 56 -100 87
-144 165 -333 197 -477 21 -92 32 -120 52 -130 10 -6 107 -24 216 -41 134 -20
203 -35 215 -46 16 -14 18 -35 18 -173 0 -110 -4 -161 -13 -174 -10 -13 -58
-24 -217 -48 -172 -25 -208 -34 -226 -52 -14 -13 -32 -64 -52 -144 -37 -145
-102 -305 -173 -422 -80 -132 -83 -139 -71 -165 6 -13 63 -94 126 -180 78
-105 116 -166 116 -183 0 -38 -205 -242 -243 -242 -20 0 -76 35 -190 120 -122
90 -170 120 -192 120 -19 0 -58 -17 -102 -45 -87 -54 -213 -118 -220 -112 -9
10 -84 190 -89 216 -5 24 0 29 53 54 251 123 498 370 628 627 44 87 98 244
121 350 26 120 27 429 1 550 -121 566 -537 982 -1107 1106 -67 15 -126 19
-275 19 -170 -1 -202 -4 -304 -28 -63 -14 -124 -33 -137 -42 -47 -31 -40 -103
11 -127 21 -9 42 -7 113 10 296 74 578 50 849 -73 160 -73 353 -228 463 -369
163 -212 247 -449 257 -721 8 -236 -30 -412 -131 -612 -93 -185 -245 -358
-411 -468 -88 -59 -171 -102 -179 -94 -11 11 -26 173 -26 275 l0 114 34 0 c48
0 65 8 81 40 29 56 -14 110 -85 110 l-30 0 0 69 0 69 36 12 c47 16 110 73 137
124 22 44 29 143 13 204 -7 27 -6 32 8 32 29 0 120 100 134 146 8 28 12 125
12 295 0 288 -4 305 -76 346 -35 20 -53 23 -169 23 -148 0 -184 -11 -222 -69
-20 -30 -23 -47 -23 -137 l0 -104 -44 0 -44 0 -4 104 c-3 113 -13 136 -72 180
-25 19 -41 21 -186 21 -145 0 -161 -2 -186 -21 -59 -44 -69 -67 -72 -180 l-4
-104 -44 0 -44 0 0 104 c0 90 -3 107 -23 137 -38 58 -74 69 -222 69 -116 0
-134 -3 -169 -23 -72 -41 -76 -58 -76 -346 0 -170 4 -267 12 -295 14 -46 105
-146 134 -146 13 0 15 -6 10 -27 -20 -79 -18 -139 4 -192 26 -58 93 -124 146
-141 l34 -12 0 -69 0 -69 -30 0 c-44 0 -78 -19 -89 -52 -20 -57 15 -98 83 -98
l36 0 0 -114 c0 -104 -15 -264 -26 -275 -8 -8 -96 39 -182 96 -271 180 -473
497 -528 828 -33 204 -6 469 68 655 94 240 260 445 475 591 99 67 112 95 70
145 -38 43 -70 37 -177 -37 -320 -219 -533 -569 -591 -968 -16 -116 -6 -370
20 -481 63 -273 186 -496 380 -691 107 -107 246 -208 364 -266 53 -25 58 -30
53 -54 -5 -26 -80 -206 -89 -216 -7 -6 -92 37 -203 103 -52 31 -103 54 -119
54 -20 0 -74 -34 -190 -120 -117 -86 -171 -120 -191 -120 -39 0 -244 203 -244
242 0 17 38 78 116 183 63 86 120 167 126 180 12 26 9 33 -71 165 -71 117
-136 277 -173 422 -20 80 -38 131 -52 144 -18 18 -54 27 -226 52 -159 24 -207
35 -217 48 -9 13 -13 64 -13 174 0 138 2 159 18 173 12 11 81 26 215 46 109
17 206 35 216 41 20 10 31 38 52 130 32 144 110 333 197 477 28 44 53 89 56
100 8 26 -9 54 -133 222 -68 90 -111 158 -111 172 0 32 215 249 246 249 12 0
95 -54 185 -120 89 -66 173 -123 186 -126 17 -5 46 7 107 45 169 103 304 158
558 226 35 9 62 23 68 34 5 11 23 108 39 216 21 140 35 203 47 216 15 17 33
19 174 19 141 0 159 -2 174 -19z m-672 -1623 c5 -117 21 -157 71 -189 28 -17
46 -19 134 -17 l103 3 37 38 38 37 3 115 4 115 108 0 108 0 4 -115 3 -115 38
-37 37 -38 103 -3 c88 -2 106 0 134 17 51 32 66 72 71 189 l4 102 94 0 94 0 0
-236 0 -236 -29 -29 -29 -29 -175 0 c-161 0 -176 -2 -201 -21 -30 -23 -35 -72
-12 -105 12 -16 31 -20 131 -24 l117 -5 30 -34 c26 -29 29 -40 25 -73 -7 -49
-29 -75 -76 -88 -48 -13 -894 -13 -942 0 -47 13 -69 39 -76 88 -4 33 -1 44 25
73 l30 34 267 5 c249 5 268 6 281 24 23 33 18 82 -12 105 -26 20 -38 21 -351
21 l-325 0 -29 29 -29 29 0 236 0 236 94 0 93 0 5 -102z m848 -1003 l0 -65
-350 0 -350 0 0 65 0 65 350 0 350 0 0 -65z m1 -380 c8 -183 31 -310 85 -466
42 -121 115 -272 174 -359 62 -92 80 -136 80 -207 l0 -63 -419 0 c-392 0 -420
-1 -442 -18 -33 -27 -30 -78 5 -109 l27 -23 470 0 c304 0 477 -4 490 -10 24
-13 49 -61 49 -94 0 -14 -13 -40 -29 -58 l-29 -33 -812 0 -812 0 -29 33 c-16
18 -29 44 -29 58 0 33 25 81 49 94 12 6 101 10 219 10 186 0 201 1 226 21 33
26 36 79 6 109 -18 18 -33 20 -170 20 l-150 0 0 65 c0 72 14 107 80 205 56 82
134 244 174 359 55 158 76 275 82 451 3 85 7 161 9 168 4 10 78 12 347 10
l343 -3 6 -160z m660 -1624 c27 -27 29 -35 29 -100 l0 -71 -1040 0 -1040 0 0
71 c0 65 2 73 29 100 l29 29 982 0 982 0 29 -29z"/>
</g>
</svg>
