<?xml version="1.0" standalone="no"?>
<!DOCTYPE svg PUBLIC "-//W3C//DTD SVG 20010904//EN"
 "http://www.w3.org/TR/2001/REC-SVG-20010904/DTD/svg10.dtd">
<svg version="1.0" xmlns="http://www.w3.org/2000/svg"
 width="512.000000pt" height="512.000000pt" viewBox="0 0 512.000000 512.000000"
 preserveAspectRatio="xMidYMid meet">

<g transform="translate(0.000000,512.000000) scale(0.100000,-0.100000)"
fill="#000000" stroke="none">
<path d="M2737 5020 c-15 -12 -36 -49 -52 -94 -27 -75 -28 -75 -79 -92 -28 -9
-76 -29 -106 -44 l-56 -28 -81 35 c-53 23 -89 34 -105 30 -13 -4 -78 -62 -146
-130 -89 -90 -122 -130 -122 -148 0 -13 16 -58 34 -99 l34 -75 -28 -55 c-15
-30 -35 -78 -44 -106 -17 -51 -17 -52 -90 -78 -117 -43 -116 -41 -116 -244 0
-202 1 -203 117 -247 l72 -26 21 -62 c11 -34 31 -82 44 -106 l23 -44 -33 -78
c-19 -42 -34 -87 -34 -100 0 -28 231 -264 267 -274 16 -4 51 6 104 29 l80 34
55 -25 c30 -13 78 -33 107 -43 52 -18 52 -19 82 -95 45 -115 46 -115 239 -115
109 0 169 4 186 13 18 9 34 35 56 91 18 43 36 81 40 85 5 4 38 18 74 30 36 13
80 32 98 42 l33 19 82 -36 c56 -24 88 -33 106 -29 32 8 245 217 261 256 10 24
7 38 -25 113 l-36 84 27 54 c15 29 35 75 44 103 17 49 18 50 101 85 57 25 88
44 97 60 9 18 12 71 10 192 -3 195 1 186 -114 233 -76 30 -78 31 -94 80 -10
28 -29 76 -43 107 l-26 58 35 79 c23 53 33 88 29 104 -4 14 -62 79 -129 146
-90 88 -129 121 -147 121 -13 0 -58 -16 -99 -34 l-75 -34 -45 23 c-25 12 -73
33 -107 45 l-62 22 -32 79 c-17 44 -41 86 -52 94 -17 12 -58 15 -188 15 -151
0 -169 -2 -192 -20z m308 -209 c14 -38 34 -76 43 -85 10 -8 49 -25 87 -37 39
-12 104 -39 146 -60 41 -21 80 -39 86 -39 6 0 44 14 83 31 l73 31 64 -64 64
-64 -31 -67 c-16 -36 -30 -75 -30 -85 0 -10 18 -53 39 -95 22 -41 49 -107 60
-145 12 -38 29 -76 39 -85 10 -9 47 -27 82 -41 l65 -24 3 -90 3 -90 -71 -27
c-39 -15 -77 -33 -85 -41 -7 -8 -24 -46 -36 -85 -12 -40 -40 -105 -61 -146
-21 -41 -38 -83 -38 -93 0 -10 14 -49 30 -86 l31 -68 -64 -63 -63 -64 -71 31
c-40 16 -79 30 -89 30 -9 0 -40 -13 -68 -29 -47 -26 -88 -43 -208 -86 -45 -16
-48 -19 -80 -96 l-32 -80 -89 3 -89 3 -27 66 c-14 36 -32 74 -40 83 -7 9 -43
25 -80 36 -37 11 -104 38 -148 60 -45 22 -88 40 -96 40 -8 0 -46 -14 -83 -30
l-68 -31 -64 65 -65 64 33 76 33 75 -50 108 c-28 60 -56 129 -63 155 -15 58
-28 69 -113 103 l-68 27 3 90 3 90 68 27 c37 15 73 33 81 41 7 8 23 45 35 83
12 37 40 106 63 153 40 84 40 86 25 122 -8 20 -23 56 -33 80 l-18 43 61 61 61
61 81 -33 80 -33 108 50 c59 28 129 56 155 63 63 17 65 19 119 158 8 21 14 22
98 22 l89 0 27 -69z"/>
<path d="M2849 4469 c-286 -42 -501 -285 -503 -568 -1 -169 54 -302 173 -421
117 -116 247 -170 411 -170 223 0 424 125 518 321 47 98 62 162 62 262 -1 195
-100 380 -263 487 -109 72 -271 108 -398 89z m190 -170 c65 -15 118 -45 178
-101 98 -93 138 -195 131 -333 -7 -131 -74 -250 -183 -325 -116 -80 -290 -93
-416 -32 -167 80 -268 267 -240 443 41 254 272 406 530 348z"/>
<path d="M2875 4255 c-14 -13 -25 -30 -25 -38 0 -7 -22 -28 -49 -46 -58 -37
-91 -95 -91 -159 0 -92 58 -158 164 -187 122 -33 127 -35 124 -58 -2 -16 -13
-25 -40 -31 -50 -12 -88 5 -113 51 -52 97 -179 42 -145 -62 16 -47 63 -101
110 -125 24 -12 40 -29 44 -45 4 -16 20 -32 41 -42 43 -20 76 -8 104 37 10 17
37 41 60 52 60 30 94 78 99 143 11 129 -47 186 -237 232 -46 12 -63 39 -37 59
31 23 75 18 99 -12 47 -56 58 -64 87 -64 38 0 80 39 80 75 0 14 -6 38 -14 54
-16 30 -90 101 -106 101 -6 0 -18 15 -27 34 -27 58 -87 73 -128 31z"/>
<path d="M4172 3275 c-159 -20 -186 -26 -208 -46 -30 -28 -31 -67 -2 -104 21
-27 23 -27 101 -23 l80 5 -34 -31 c-137 -122 -741 -666 -770 -693 l-36 -34
-61 20 c-34 12 -76 21 -95 21 -54 0 -131 -27 -179 -64 l-45 -35 -234 108 -234
109 -6 64 c-9 111 -60 187 -162 240 -33 18 -59 23 -122 23 -70 0 -87 -4 -133
-30 -97 -53 -143 -129 -151 -249 l-6 -78 -326 -188 -326 -187 -29 23 c-72 58
-202 71 -290 30 -182 -85 -225 -315 -86 -459 55 -58 105 -80 192 -85 70 -4 79
-2 140 30 106 55 170 167 157 277 l-5 46 330 189 c272 155 334 187 347 178 40
-29 94 -53 140 -63 67 -14 156 9 222 57 l48 35 234 -108 235 -108 4 -65 c11
-155 130 -265 283 -264 120 1 204 53 256 159 29 59 31 70 26 137 -3 40 -8 84
-11 98 -5 23 33 60 390 380 477 428 478 430 470 404 -3 -10 -6 -52 -7 -93 -2
-70 0 -76 25 -98 34 -29 68 -29 101 0 25 21 27 30 41 187 18 219 18 253 -3
279 -26 31 -59 32 -261 6z m-1952 -610 c68 -35 91 -116 50 -182 -24 -40 -54
-56 -105 -56 -71 0 -125 54 -125 125 0 45 19 78 59 105 39 27 80 29 121 8z
m974 -449 c105 -44 100 -194 -8 -235 -109 -41 -208 85 -146 187 20 32 67 61
103 62 10 0 32 -6 51 -14z m-2100 -217 c56 -44 70 -110 36 -166 -48 -80 -165
-84 -215 -6 -21 32 -24 98 -6 131 31 59 134 81 185 41z"/>
<path d="M1904 1715 c-84 -23 -147 -55 -424 -215 -145 -84 -265 -149 -267
-143 -15 44 -68 106 -106 123 -74 34 -108 27 -242 -46 -66 -36 -131 -75 -144
-87 -33 -30 -51 -78 -51 -134 0 -43 23 -88 286 -552 157 -278 295 -516 306
-528 30 -33 100 -57 147 -50 22 3 92 35 162 73 138 78 169 112 176 192 4 39
-1 59 -29 115 l-35 67 42 25 42 24 374 -100 c206 -55 410 -109 454 -121 108
-28 253 -22 340 14 61 25 1263 761 1316 806 42 35 80 116 86 182 16 172 -107
303 -283 303 -140 -1 -183 -20 -669 -303 -190 -110 -352 -203 -360 -206 -12
-5 -12 0 -5 28 21 71 5 145 -45 218 -43 62 -93 88 -243 125 -75 19 -249 72
-387 119 -223 77 -257 86 -320 85 -38 0 -93 -6 -121 -14z m396 -224 c113 -40
274 -90 359 -112 84 -21 160 -44 168 -51 48 -39 52 -116 9 -157 -47 -44 -59
-43 -457 65 -102 27 -107 28 -132 11 -46 -30 -48 -103 -4 -131 23 -15 343
-104 476 -132 107 -23 241 -21 317 3 36 12 220 112 442 242 209 122 410 232
447 246 74 28 149 34 194 15 62 -25 80 -136 29 -186 -34 -33 -1203 -753 -1268
-780 -104 -44 -140 -39 -645 96 -247 66 -462 120 -478 120 -16 0 -57 -16 -92
-35 l-63 -35 -151 267 c-83 147 -147 270 -143 274 8 9 459 271 517 302 22 11
65 29 95 39 92 30 148 21 380 -61z m-984 -640 c151 -266 274 -487 274 -492 0
-4 -45 -33 -101 -65 -84 -47 -103 -54 -114 -43 -7 8 -133 227 -280 488 -189
335 -265 478 -259 488 12 18 176 112 192 110 8 -1 137 -220 288 -486z"/>
<path d="M955 1205 c-14 -13 -25 -33 -25 -45 0 -29 35 -60 68 -60 57 0 83 69
42 110 -27 27 -56 25 -85 -5z"/>
</g>
</svg>
